<?xml version="1.0" encoding="UTF-8" standalone="no"?>
<!-- Created with DrawBerry (http://raphaelbost.free.fr/) -->
<svg
 	 width = "50.000000"
 	 height = "50.000000" 
xmlns:dc="http://purl.org/dc/elements/1.1/"
xmlns:cc="http://web.resource.org/cc/"
xmlns:rdf="http://www.w3.org/1999/02/22-rdf-syntax-ns#"
 xmlns:svg="http://www.w3.org/2000/svg"
 xmlns="http://www.w3.org/2000/svg"
 xmlns:sodipodi="http://inkscape.sourceforge.net/DTD/sodipodi-0.dtd"
 xmlns:inkscape="http://www.inkscape.org/namespaces/inkscape"
 >
<g inkscape:label="" inkscape:groupmode="layer" id="">
<path  style="fill:#3cc24a;fill-opacity:1.000000;stroke:#119f13;stroke-width:1.000000px;stroke-opacity:1.000000;stroke-linecap:butt;stroke-linejoin:miter;"
 d="M 35.733223,1.387484 C 35.733223,1.387484 41.579288,7.122698 41.579288,7.122698 C 41.811573,7.350592 41.839909,7.752028 41.645794,8.022506 C 41.645794,8.022506 17.818579,41.222130 17.818579,41.222130 C 17.698267,41.389755 17.521198,41.467110 17.348972,41.448444 C 17.238506,41.438084 17.129389,41.388573 17.037668,41.298561 C 17.037668,41.298561 1.175139,25.736807 1.175139,25.736807 C 0.941453,25.507551 0.910876,25.104706 1.104583,24.834806 C 1.104583,24.834806 6.010014,17.999796 6.010014,17.999796 C 6.204933,17.728207 6.549366,17.696146 6.782038,17.924402 C 6.782038,17.924402 16.388580,27.348827 16.388580,27.348827 C 16.388580,27.348827 34.963753,1.467150 34.963753,1.467150 C 35.733223,1.387484 35.502365,1.161010 35.733223,1.387484  zM 35.733223,1.387484 "  />
</g>
</svg>
