<?xml version="1.0" encoding="UTF-8" standalone="no"?>
<!-- Created with DrawBerry (http://raphaelbost.free.fr/) -->
<svg
 	 width = "50.000000"
 	 height = "50.000000" 
xmlns:dc="http://purl.org/dc/elements/1.1/"
xmlns:cc="http://web.resource.org/cc/"
xmlns:rdf="http://www.w3.org/1999/02/22-rdf-syntax-ns#"
 xmlns:svg="http://www.w3.org/2000/svg"
 xmlns="http://www.w3.org/2000/svg"
 xmlns:sodipodi="http://inkscape.sourceforge.net/DTD/sodipodi-0.dtd"
 xmlns:inkscape="http://www.inkscape.org/namespaces/inkscape"
 >
<g inkscape:label="" inkscape:groupmode="layer" id="">
<path  style="fill:#c00700;fill-opacity:1.000000;stroke:#a40119;stroke-width:1.000000px;stroke-opacity:1.000000;stroke-linecap:butt;stroke-linejoin:miter;"
 d="M 39.574520,33.584831 C 39.574520,33.584831 27.765724,21.691759 27.765724,21.691759 C 27.765724,21.691759 39.571144,9.801081 39.571144,9.801081 C 41.327263,8.032244 41.327263,5.165154 39.571144,3.396882 C 37.815063,1.629176 34.968025,1.629176 33.214069,3.396882 C 33.214069,3.396882 21.408171,15.288239 21.408171,15.288239 C 21.408171,15.288239 9.601596,3.396882 9.601596,3.396882 C 7.846622,1.629176 5.000027,1.628609 3.243926,3.397449 C 1.488389,5.165721 1.488389,8.032807 3.244489,9.801081 C 3.244489,9.801081 15.051052,21.691759 15.051052,21.691759 C 15.051052,21.691759 3.243926,33.584831 3.243926,33.584831 C 1.488389,35.352528 1.488389,38.220184 3.243926,39.987778 C 4.122033,40.872200 5.272204,41.314453 6.423038,41.314453 C 7.573886,41.314453 8.724052,40.872200 9.602160,39.987778 C 9.602160,39.987778 21.409182,28.094828 21.409182,28.094828 C 21.409182,28.094828 33.217442,39.987778 33.217442,39.987778 C 34.095436,40.872200 35.245705,41.314453 36.395969,41.314453 C 37.546146,41.314453 38.697552,40.872200 39.574520,39.987778 C 41.330627,38.220184 41.330627,35.352528 39.574520,33.584831  z"  />
</g>
</svg>
